<svg width="721" height="540" viewBox="0 0 721 540" fill="none" xmlns="http://www.w3.org/2000/svg">
<g clip-path="url(#clip0)">
<path d="M6.49549 0C4.7734 0.00202514 3.12242 0.686897 1.90472 1.90438C0.687019 3.12185 0.00202334 4.77253 0 6.4943V533.506C0.00202334 535.227 0.687019 536.878 1.90472 538.096C3.12242 539.313 4.7734 539.998 6.49549 540H714.504C716.227 539.998 717.878 539.313 719.095 538.096C720.313 536.878 720.998 535.227 721 533.506V6.4943C720.998 4.77253 720.313 3.12185 719.095 1.90438C717.878 0.686897 716.227 0.00202514 714.504 0H6.49549Z" fill="#6C77FF"/>
<path d="M20.7856 20.7816V519.219H700.214V20.7816H20.7856Z" fill="white"/>
<path d="M518.947 47.7336C518.571 47.734 518.21 47.8837 517.944 48.1498C517.678 48.416 517.528 48.7768 517.528 49.1531V164.349C517.528 164.726 517.678 165.086 517.944 165.353C518.21 165.619 518.571 165.768 518.947 165.769H673.707C674.083 165.768 674.444 165.619 674.71 165.353C674.976 165.086 675.126 164.726 675.126 164.349V49.1531C675.126 48.7768 674.976 48.416 674.71 48.1498C674.444 47.8837 674.083 47.734 673.707 47.7336H518.947Z" fill="#E6E6E6"/>
<path d="M522.071 52.2761V161.226H670.583V52.2761H522.071Z" fill="white"/>
<path d="M518.947 210.028C518.571 210.028 518.21 210.178 517.944 210.444C517.678 210.71 517.528 211.071 517.528 211.447V326.643C517.528 327.02 517.678 327.381 517.944 327.647C518.21 327.913 518.571 328.063 518.947 328.063H673.707C674.083 328.063 674.444 327.913 674.71 327.647C674.976 327.381 675.126 327.02 675.126 326.643V211.447C675.126 211.071 674.976 210.71 674.71 210.444C674.444 210.178 674.083 210.028 673.707 210.028H518.947Z" fill="#E6E6E6"/>
<path d="M522.071 214.57V323.52H670.583V214.57H522.071Z" fill="white"/>
<path d="M518.947 372.322C518.571 372.322 518.21 372.472 517.944 372.738C517.678 373.004 517.528 373.365 517.528 373.741V488.937C517.528 489.314 517.678 489.675 517.944 489.941C518.21 490.207 518.571 490.357 518.947 490.357H673.707C674.083 490.357 674.444 490.207 674.71 489.941C674.976 489.675 675.126 489.314 675.126 488.937V373.741C675.126 373.365 674.976 373.004 674.71 372.738C674.444 372.472 674.083 372.322 673.707 372.322H518.947Z" fill="#E6E6E6"/>
<path d="M522.071 376.864V485.815H670.583V376.864H522.071Z" fill="white"/>
<path d="M642.718 140.222L613.127 119.525H613.117L613.115 119.528C612.109 116.362 611.415 113.105 611.044 109.804C613.822 107.274 615.794 103.983 616.714 100.34C616.833 100.411 616.947 100.488 617.057 100.572C619.649 102.646 624.574 80.6162 616.279 76.4695C616.279 76.4695 610.058 62.9925 598.134 66.1025C586.21 69.2126 579.47 73.8777 578.952 78.5428C578.433 83.2079 579.211 90.2055 579.211 90.2055C579.211 90.2055 579.929 84.9143 583.7 83.044C581.835 85.1702 580.465 87.6833 579.688 90.4025C578.911 93.1216 578.746 95.9792 579.206 98.7695C579.667 101.56 580.74 104.213 582.348 106.539C583.957 108.865 586.062 110.806 588.511 112.221C587.611 115.31 586.409 119.315 585.399 122.255H585.398L576.356 126.752L556.657 139.191C556.657 139.191 548.885 149.034 546.287 160.442C546.087 161.339 545.877 162.237 545.657 163.134H650.738C647.234 152.547 642.718 140.222 642.718 140.222Z" fill="#E6E6E6"/>
<path d="M636.215 473.498C638.238 472.206 640.38 471.113 642.613 470.233L620.594 444.094L606.042 440.371C603.488 438.937 601.472 436.707 600.303 434.022L608.095 433.946L611.064 417.134C612.869 412.246 612.134 407.96 608.095 404.427C608.82 399.902 606.767 396.57 601.325 394.69C595.911 389.993 587.909 388.866 583.106 396.389C581.167 396.274 579.259 396.911 577.779 398.169C576.298 399.426 575.361 401.207 575.162 403.139C570.751 408.265 575.649 427.082 577.1 434.251L584.844 434.175C584.398 436.827 583.097 439.261 581.139 441.106L581.034 441.001L565.556 448.571L543.538 474.023C545.711 474.874 547.798 475.929 549.773 477.173L547.5 485.813H563.255L567.447 479.722H567.657C567.657 479.617 567.667 479.512 567.667 479.407L570.608 475.13C570.674 478.586 570.579 482.147 570.34 485.813H619.343C619.267 482.768 619.248 479.741 619.248 476.734L624.728 484.687C625.139 484.085 625.578 483.522 626.017 482.949L627.096 485.813H639.643L636.635 474.376C636.55 474.06 636.408 473.762 636.215 473.498V473.498Z" fill="#E6E6E6"/>
<path d="M625.263 291.28L604.457 282.774C603.96 280.807 603.54 278.955 603.273 277.322C605.409 276.108 607.281 274.478 608.776 272.528C610.272 270.579 611.362 268.349 611.981 265.971L614.177 263.613C615.344 262.396 616.237 260.943 616.797 259.353C617.357 257.763 617.57 256.071 617.424 254.391C617.042 251.163 615.406 248.214 612.869 246.181C613.719 240.806 611.284 236.854 604.829 234.62C598.413 229.054 588.912 227.708 583.221 236.634C580.919 236.497 578.654 237.254 576.896 238.746C575.138 240.238 574.025 242.351 573.787 244.644C569.108 250.086 573.93 260.94 576.231 269.255C576.407 269.871 576.761 270.421 577.249 270.835C577.736 271.25 578.336 271.511 578.972 271.585C580.502 273.846 582.514 275.74 584.863 277.132C584.923 279.533 584.64 281.931 584.023 284.253L584.042 283.528L568.526 290.506L568.516 290.316L567.017 291.184L564.64 292.254C564.659 292.349 564.678 292.435 564.697 292.53L564.477 292.654C561.135 294.59 558.575 297.633 557.24 301.256L549.267 324.588H620.651C621.377 322.156 622.271 319.776 623.325 317.466L623.344 317.209L629.684 324.588H649.048L625.263 291.28Z" fill="#E6E6E6"/>
<path d="M272.039 484.757C295.123 484.757 313.837 466.047 313.837 442.967C313.837 419.888 295.123 401.178 272.039 401.178C248.955 401.178 230.242 419.888 230.242 442.967C230.242 466.047 248.955 484.757 272.039 484.757Z" fill="#E6E6E6"/>
<path d="M272.039 475.006C289.737 475.006 304.084 460.662 304.084 442.968C304.084 425.273 289.737 410.929 272.039 410.929C254.342 410.929 239.995 425.273 239.995 442.968C239.995 460.662 254.342 475.006 272.039 475.006Z" fill="white"/>
<path d="M288.093 460.466C287.901 460.466 287.711 460.429 287.534 460.355C287.357 460.282 287.196 460.174 287.061 460.038L254.95 427.934C254.688 427.658 254.544 427.29 254.549 426.91C254.554 426.529 254.707 426.166 254.976 425.897C255.246 425.627 255.609 425.474 255.99 425.469C256.371 425.464 256.738 425.608 257.014 425.871L289.124 457.975C289.328 458.179 289.467 458.439 289.524 458.722C289.58 459.005 289.551 459.298 289.441 459.565C289.33 459.832 289.143 460.059 288.903 460.22C288.663 460.38 288.381 460.466 288.093 460.466H288.093Z" fill="#6C63FF"/>
<path d="M271.308 448.413L266.583 443.689C266.556 443.663 266.521 443.645 266.484 443.639C266.446 443.633 266.407 443.639 266.373 443.656C266.339 443.673 266.311 443.7 266.293 443.734C266.276 443.767 266.269 443.806 266.274 443.844C266.465 445.069 267.04 446.202 267.917 447.079C268.794 447.956 269.928 448.532 271.153 448.722C271.191 448.727 271.23 448.721 271.263 448.703C271.297 448.685 271.324 448.657 271.341 448.623C271.358 448.589 271.364 448.55 271.358 448.513C271.352 448.475 271.334 448.44 271.308 448.413L271.308 448.413Z" fill="#6C63FF"/>
<path d="M272.767 437.496L277.499 442.225C277.526 442.252 277.561 442.27 277.599 442.276C277.636 442.282 277.675 442.277 277.71 442.26C277.744 442.242 277.772 442.215 277.79 442.181C277.808 442.147 277.814 442.108 277.809 442.071C277.619 440.843 277.043 439.709 276.165 438.831C275.286 437.952 274.151 437.377 272.924 437.186C272.886 437.181 272.847 437.187 272.813 437.204C272.779 437.222 272.751 437.25 272.733 437.284C272.716 437.318 272.71 437.357 272.716 437.395C272.722 437.433 272.74 437.468 272.767 437.496V437.496Z" fill="#6C63FF"/>
<path d="M293.475 444.538C293.777 444.064 293.936 443.513 293.935 442.951C293.933 442.389 293.77 441.84 293.466 441.367C291.125 437.709 288.039 434.585 284.41 432.198C280.732 429.752 276.425 428.42 272.008 428.361C269.781 428.364 267.568 428.727 265.456 429.437C265.397 429.456 265.344 429.491 265.302 429.537C265.26 429.583 265.231 429.639 265.216 429.699C265.202 429.76 265.204 429.823 265.221 429.883C265.238 429.943 265.27 429.997 265.314 430.041L269.624 434.35C269.668 434.395 269.724 434.427 269.785 434.444C269.846 434.461 269.911 434.461 269.972 434.446C271.433 434.09 272.961 434.116 274.408 434.521C275.856 434.927 277.175 435.698 278.238 436.761C279.301 437.824 280.073 439.143 280.478 440.59C280.884 442.038 280.91 443.565 280.554 445.026C280.538 445.087 280.539 445.151 280.556 445.212C280.573 445.273 280.605 445.328 280.65 445.373L286.848 451.575C286.913 451.64 286.999 451.678 287.09 451.682C287.182 451.686 287.271 451.656 287.341 451.597C289.727 449.564 291.795 447.184 293.475 444.538V444.538Z" fill="#6C63FF"/>
<path d="M272.037 451.71C270.712 451.71 269.403 451.409 268.211 450.83C267.018 450.251 265.973 449.409 265.153 448.367C264.334 447.325 263.761 446.111 263.48 444.816C263.198 443.521 263.214 442.178 263.526 440.89C263.542 440.829 263.541 440.765 263.524 440.704C263.507 440.643 263.475 440.587 263.43 440.543L257.333 434.444C257.268 434.379 257.182 434.341 257.09 434.337C256.999 434.333 256.909 434.364 256.84 434.423C254.497 436.453 252.422 438.774 250.666 441.329C250.336 441.803 250.155 442.364 250.144 442.941C250.134 443.518 250.295 444.085 250.608 444.57C252.911 448.232 255.967 451.361 259.574 453.75C263.257 456.206 267.581 457.526 272.008 457.547C274.258 457.541 276.494 457.186 278.635 456.494C278.694 456.475 278.748 456.441 278.791 456.395C278.833 456.349 278.863 456.293 278.878 456.232C278.893 456.171 278.892 456.108 278.875 456.048C278.858 455.987 278.826 455.932 278.781 455.888L274.451 451.56C274.406 451.515 274.351 451.483 274.29 451.466C274.229 451.449 274.165 451.448 274.104 451.464C273.427 451.628 272.733 451.71 272.037 451.71V451.71Z" fill="#6C63FF"/>
<path d="M113.456 484.757C136.54 484.757 155.253 466.047 155.253 442.967C155.253 419.888 136.54 401.178 113.456 401.178C90.3718 401.178 71.6585 419.888 71.6585 442.967C71.6585 466.047 90.3718 484.757 113.456 484.757Z" fill="#E6E6E6"/>
<path d="M113.456 475.006C131.154 475.006 145.5 460.662 145.5 442.968C145.5 425.273 131.154 410.929 113.456 410.929C95.7581 410.929 81.4113 425.273 81.4113 442.968C81.4113 460.662 95.7581 475.006 113.456 475.006Z" fill="white"/>
<path d="M125.766 463.397C123.985 463.397 121.484 462.753 117.739 460.661C113.083 458.173 108.832 454.994 105.131 451.232C101.299 447.584 98.0999 443.325 95.6625 438.63C92.3019 432.519 92.8747 429.316 93.5151 427.947C94.2544 426.45 95.417 425.203 96.8585 424.361C97.6849 423.82 98.5595 423.355 99.4711 422.975C99.5623 422.935 99.6472 422.898 99.7229 422.864C100.025 422.693 100.359 422.589 100.704 422.557C101.05 422.526 101.398 422.568 101.725 422.682C102.453 423.032 103.101 423.529 103.628 424.141C105.525 426.27 107.126 428.645 108.386 431.203C108.904 432.088 109.223 433.075 109.32 434.095C109.244 435.105 108.835 436.062 108.156 436.814C108.037 436.977 107.918 437.133 107.803 437.285C107.109 438.197 106.957 438.46 107.057 438.931C107.261 439.877 108.778 442.692 111.271 445.18C113.764 447.667 116.499 449.088 117.448 449.29C117.939 449.395 118.208 449.237 119.15 448.518C119.285 448.415 119.423 448.308 119.568 448.201C120.323 447.49 121.296 447.055 122.329 446.966H122.334C123.37 447.073 124.366 447.422 125.241 447.986C126.883 448.814 130.633 451.05 132.278 452.709C132.891 453.234 133.39 453.88 133.742 454.607C133.855 454.935 133.897 455.284 133.865 455.629C133.834 455.975 133.73 456.311 133.559 456.613C133.526 456.689 133.488 456.772 133.449 456.864C133.065 457.774 132.598 458.646 132.054 459.471C131.209 460.91 129.96 462.07 128.462 462.807C127.619 463.205 126.698 463.407 125.766 463.397V463.397Z" fill="#6C63FF"/>
<path d="M431.852 484.757C454.936 484.757 473.649 466.047 473.649 442.967C473.649 419.888 454.936 401.178 431.852 401.178C408.768 401.178 390.055 419.888 390.055 442.967C390.055 466.047 408.768 484.757 431.852 484.757Z" fill="#E6E6E6"/>
<path d="M431.852 475.006C449.55 475.006 463.897 460.662 463.897 442.968C463.897 425.273 449.55 410.929 431.852 410.929C414.155 410.929 399.808 425.273 399.808 442.968C399.808 460.662 414.155 475.006 431.852 475.006Z" fill="white"/>
<path d="M437.691 461.938H426.014C425.627 461.938 425.256 461.785 424.982 461.511C424.708 461.237 424.554 460.866 424.554 460.479C424.554 460.092 424.708 459.721 424.982 459.447C425.256 459.174 425.627 459.02 426.014 459.02H437.691C438.078 459.02 438.449 459.174 438.723 459.447C438.996 459.721 439.15 460.092 439.15 460.479C439.15 460.866 438.996 461.237 438.723 461.511C438.449 461.785 438.078 461.938 437.691 461.938V461.938Z" fill="#6C63FF"/>
<path d="M431.852 454.642C428.369 454.638 425.031 453.253 422.568 450.791C420.105 448.329 418.72 444.99 418.716 441.508V438.59C418.716 438.203 418.87 437.831 419.144 437.558C419.417 437.284 419.789 437.13 420.176 437.13C420.563 437.13 420.934 437.284 421.208 437.558C421.481 437.831 421.635 438.203 421.635 438.59V441.508C421.638 444.216 422.715 446.812 424.631 448.726C426.547 450.639 429.144 451.714 431.852 451.714C434.56 451.714 437.158 450.639 439.073 448.726C440.989 446.812 442.067 444.216 442.069 441.508V438.59C442.069 438.203 442.223 437.831 442.497 437.558C442.77 437.284 443.142 437.13 443.529 437.13C443.916 437.13 444.287 437.284 444.561 437.558C444.835 437.831 444.988 438.203 444.988 438.59V441.508C444.984 444.99 443.599 448.329 441.136 450.791C438.674 453.253 435.335 454.638 431.852 454.642V454.642Z" fill="#6C63FF"/>
<path d="M431.852 461.938C431.661 461.938 431.471 461.901 431.294 461.827C431.117 461.754 430.956 461.647 430.82 461.511C430.685 461.376 430.577 461.215 430.504 461.038C430.43 460.861 430.393 460.671 430.393 460.479V453.183C430.393 452.796 430.546 452.424 430.82 452.151C431.094 451.877 431.465 451.723 431.852 451.723C432.239 451.723 432.611 451.877 432.884 452.151C433.158 452.424 433.312 452.796 433.312 453.183V460.479C433.312 460.671 433.274 460.861 433.201 461.038C433.127 461.215 433.02 461.376 432.884 461.511C432.749 461.647 432.588 461.754 432.411 461.827C432.234 461.901 432.044 461.938 431.852 461.938V461.938Z" fill="#6C63FF"/>
<path d="M431.852 448.805C430.889 448.802 429.936 448.607 429.05 448.229C428.164 447.852 427.362 447.3 426.694 446.607C425.324 445.226 424.556 443.361 424.554 441.417V431.293C424.551 430.339 424.735 429.393 425.097 428.51C425.459 427.626 425.991 426.823 426.664 426.145C427.336 425.468 428.135 424.929 429.016 424.561C429.896 424.192 430.841 424 431.796 423.997C431.814 423.997 431.833 423.997 431.852 423.997C432.813 423.986 433.767 424.168 434.657 424.531C435.547 424.894 436.356 425.431 437.036 426.111C437.715 426.79 438.253 427.599 438.616 428.489C438.979 429.379 439.16 430.332 439.15 431.293V441.417C439.16 443.364 438.397 445.235 437.029 446.619C435.661 448.004 433.799 448.79 431.852 448.805V448.805Z" fill="#6C63FF"/>
<path d="M58.6966 47.9614C57.6851 47.9626 56.7154 48.3648 56.0001 49.0799C55.2849 49.7951 54.8825 50.7646 54.8813 51.776V361.329C54.8825 362.341 55.2849 363.31 56.0001 364.025C56.7154 364.74 57.6851 365.143 58.6966 365.144H474.563C475.575 365.143 476.545 364.74 477.26 364.025C477.975 363.31 478.378 362.341 478.379 361.329V51.776C478.378 50.7646 477.975 49.7951 477.26 49.0799C476.545 48.3648 475.575 47.9626 474.563 47.9614H58.6966Z" fill="#6C77FF"/>
<path d="M67.0903 60.168V352.938H466.17V60.168H67.0903Z" fill="white"/>
<path d="M342.651 352.937L343.37 350.123L337.132 324.285L336.524 321.749L336.065 319.854L336.796 319.608L373.651 307.329L374.123 314.148L376.796 352.937H342.651Z" fill="#FFB9B9"/>
<path d="M196.128 324.285L189.89 350.123L190.609 352.937H156.464L159.137 314.148L159.609 307.329L197.196 319.854L196.128 324.285Z" fill="#FFB9B9"/>
<path d="M297.431 220.682L237.917 226.946C244.169 210.856 243.013 192.391 237.917 172.663H280.725C283.538 189.499 289.187 205.735 297.431 220.682V220.682Z" fill="#FFB9B9"/>
<path d="M259.843 197.716C277.719 197.716 292.21 183.228 292.21 165.355C292.21 147.483 277.719 132.994 259.843 132.994C241.968 132.994 227.476 147.483 227.476 165.355C227.476 183.228 241.968 197.716 259.843 197.716Z" fill="#FFB9B9"/>
<path d="M352.771 233.211C345.938 263.403 340.316 292.107 336.796 319.608C336.699 320.326 336.608 321.038 336.524 321.749C336.407 322.681 336.291 323.612 336.187 324.544C335.036 334.151 334.166 343.615 333.58 352.938H203.317C203.453 344.146 203.161 335.154 202.508 326.038C200.263 294.772 193.669 262.077 184.669 231.121L184.734 231.096L241.68 211.429L242.094 211.287C258.51 218.862 274.854 219.212 291.069 207.716C291.121 207.683 291.166 207.645 291.218 207.612L344.301 229.692L344.321 229.698L352.771 233.211Z" fill="#AC5555"/>
<path d="M391.4 309.414L326.666 327.16L342.327 229.034L352.317 232.363C355.981 233.584 359.281 235.701 361.917 238.523C364.553 241.344 366.441 244.78 367.411 248.518L391.4 309.414Z" fill="#AC5555"/>
<path d="M141.861 309.414L206.595 327.16L190.933 229.034L180.943 232.363C177.28 233.584 173.98 235.701 171.343 238.523C168.707 241.344 166.819 244.78 165.85 248.518L141.861 309.414Z" fill="#AC5555"/>
<path d="M257.763 110.613C252.257 110.866 246.894 112.445 242.13 115.215C241.034 115.853 241.54 118.152 240.528 118.902C239.252 119.846 236.483 119.273 235.354 120.379C231.709 123.937 228.902 128.262 227.138 133.04C225.374 137.819 224.697 142.93 225.156 148.003L226.954 165.877L231.196 161.239C238.801 152.808 249.36 147.625 260.683 146.766C261.164 146.733 261.646 146.707 262.129 146.689L258.866 140.979L264.537 146.649C267.124 146.678 269.706 146.888 272.264 147.278L267.924 139.685L276.251 148.01L276.252 148.011C279.657 148.76 282.839 150.298 285.541 152.501C288.243 154.704 290.39 157.512 291.808 160.696L292.732 162.746L293.768 145.693C293.871 140.98 293.002 136.296 291.217 131.933C289.432 127.569 286.768 123.62 283.391 120.33C280.014 117.039 275.996 114.479 271.587 112.807C267.179 111.136 262.473 110.389 257.763 110.613V110.613Z" fill="#2F2E41"/>
<path d="M227.807 170.737C229.237 170.737 230.396 167.986 230.396 164.592C230.396 161.197 229.237 158.446 227.807 158.446C226.378 158.446 225.219 161.197 225.219 164.592C225.219 167.986 226.378 170.737 227.807 170.737Z" fill="#FFB9B9"/>
<path d="M292.512 168.797C293.941 168.797 295.1 166.045 295.1 162.651C295.1 159.257 293.941 156.505 292.512 156.505C291.082 156.505 289.924 159.257 289.924 162.651C289.924 166.045 291.082 168.797 292.512 168.797Z" fill="#FFB9B9"/>
</g>
<defs>
<clipPath id="clip0">
<rect width="721" height="540" fill="white"/>
</clipPath>
</defs>
</svg>
