<svg width="1440" height="297" viewBox="0 0 1440 297" fill="none" xmlns="http://www.w3.org/2000/svg">
<g clip-path="url(#clip0)">
<path d="M0 93.2854L48 120.32C96 147.863 192 201.171 288 181.244C384 160.555 480 66.6316 576 25.6354C672 -14.5992 768 -1.90689 864 25.6354C960 52.67 1056 93.2854 1152 133.901C1248 174.517 1344 215.132 1392 235.44L1440 255.747V296.363H1392C1344 296.363 1248 296.363 1152 296.363C1056 296.363 960 296.363 864 296.363C768 296.363 672 296.363 576 296.363C480 296.363 384 296.363 288 296.363C192 296.363 96 296.363 48 296.363H0V93.2854Z" fill="#020D2A" fill-opacity="0.4"/>
</g>
<g clip-path="url(#clip1)">
<path d="M0 115.234L48 139.356C96 163.931 192 211.496 288 193.716C384 175.256 480 91.4524 576 54.8733C672 18.9738 768 30.2986 864 54.8733C960 78.9951 1056 115.234 1152 151.474C1248 187.714 1344 223.953 1392 242.073L1440 260.192V296.431H1392C1344 296.431 1248 296.431 1152 296.431C1056 296.431 960 296.431 864 296.431C768 296.431 672 296.431 576 296.431C480 296.431 384 296.431 288 296.431C192 296.431 96 296.431 48 296.431H0V115.234Z" fill="#020D2A" fill-opacity="0.58"/>
</g>
<g clip-path="url(#clip2)">
<path d="M0 136.498L48 157.798C96 179.498 192 221.498 288 205.798C384 189.498 480 115.498 576 83.1976C672 51.4976 768 61.4976 864 83.1976C960 104.498 1056 136.498 1152 168.498C1248 200.498 1344 232.498 1392 248.498L1440 264.498V296.498H1392C1344 296.498 1248 296.498 1152 296.498C1056 296.498 960 296.498 864 296.498C768 296.498 672 296.498 576 296.498C480 296.498 384 296.498 288 296.498C192 296.498 96 296.498 48 296.498H0V136.498Z" fill="#020D2A"/>
</g>
<defs>
<clipPath id="clip0">
<rect width="1440" height="297" fill="white"/>
</clipPath>
<clipPath id="clip1">
<rect width="1440" height="265" fill="white" transform="translate(0 32)"/>
</clipPath>
<clipPath id="clip2">
<rect width="1440" height="234" fill="white" transform="translate(0 63)"/>
</clipPath>
</defs>
</svg>
