<svg width="1440" height="397" viewBox="0 0 1440 397" fill="none" xmlns="http://www.w3.org/2000/svg">
<g clip-path="url(#clip0)">
<path d="M1440 39.7L1392 85.9753C1344 132.747 1248 224.553 1152 224.925C1056 224.553 960 132.747 864 105.825C768 79.4 672 119.1 576 158.8C480 198.5 384 238.2 288 264.625C192 291.547 96 303.953 48 311.025L0 317.6V397H48C96 397 192 397 288 397C384 397 480 397 576 397C672 397 768 397 864 397C960 397 1056 397 1152 397C1248 397 1344 397 1392 397H1440V39.7Z" fill="black" fill-opacity="0.25"/>
</g>
<g clip-path="url(#clip1)">
<path d="M1440 109L1392 146.3C1344 184 1248 258 1152 258.3C1056 258 960 184 864 162.3C768 141 672 173 576 205C480 237 384 269 288 290.3C192 312 96 322 48 327.7L0 333V397H48C96 397 192 397 288 397C384 397 480 397 576 397C672 397 768 397 864 397C960 397 1056 397 1152 397C1248 397 1344 397 1392 397H1440V109Z" fill="black"/>
</g>
<g clip-path="url(#clip2)">
<path d="M1440 75.7L1392 117.313C1344 159.372 1248 241.928 1152 242.263C1056 241.928 960 159.372 864 135.163C768 111.4 672 147.1 576 182.8C480 218.5 384 254.2 288 277.963C192 302.172 96 313.328 48 319.687L0 325.6V397H48C96 397 192 397 288 397C384 397 480 397 576 397C672 397 768 397 864 397C960 397 1056 397 1152 397C1248 397 1344 397 1392 397H1440V75.7Z" fill="black" fill-opacity="0.5"/>
</g>
<defs>
<clipPath id="clip0">
<rect width="1440" height="397" fill="white" transform="translate(1440 397) rotate(-180)"/>
</clipPath>
<clipPath id="clip1">
<rect width="1440" height="320" fill="white" transform="translate(1440 397) rotate(-180)"/>
</clipPath>
<clipPath id="clip2">
<rect width="1440" height="357" fill="white" transform="translate(1440 397) rotate(-180)"/>
</clipPath>
</defs>
</svg>
