<svg width="1440" height="267" viewBox="0 0 1440 267" fill="none" xmlns="http://www.w3.org/2000/svg">
<path d="M0 141.186L48 113.493C96 85.2804 192 30.6745 288 9.48224C384 -10.93 480 2.07144 576 44.066C672 85.2804 768 155.488 864 189.682C960 224.395 1056 224.395 1152 203.593C1248 182.791 1344 141.186 1392 120.384L1440 99.582V266H1392C1344 266 1248 266 1152 266C1056 266 960 266 864 266C768 266 672 266 576 266C480 266 384 266 288 266C192 266 96 266 48 266H0V141.186Z" fill="white" fill-opacity="0.13"/>
<path d="M0 159.955L48 136.427C96 112.456 192 66.0618 288 48.0563C384 30.7136 480 41.76 576 77.4395C672 112.456 768 172.106 864 201.158C960 230.652 1056 230.652 1152 212.978C1248 195.304 1344 159.955 1392 142.281L1440 124.607V266H1392C1344 266 1248 266 1152 266C1056 266 960 266 864 266C768 266 672 266 576 266C480 266 384 266 288 266C192 266 96 266 48 266H0V159.955Z" fill="white" fill-opacity="0.35"/>
<path d="M0 170.809L48 149.467C96 127.724 192 85.6401 288 69.3077C384 53.5765 480 63.5964 576 95.9606C672 127.724 768 181.831 864 208.183C960 234.936 1056 234.936 1152 218.905C1248 202.873 1344 170.809 1392 154.777L1440 138.746V267H1392C1344 267 1248 267 1152 267C1056 267 960 267 864 267C768 267 672 267 576 267C480 267 384 267 288 267C192 267 96 267 48 267H0V170.809Z" fill="white"/>
</svg>
