<svg width="1440" height="387" viewBox="0 0 1440 387" fill="none" xmlns="http://www.w3.org/2000/svg">
<path d="M0 116.1L48 122.51C96 129.403 192 141.497 288 180.56C384 218.897 480 284.203 576 270.9C672 257.597 768 168.103 864 167.74C960 168.103 1056 257.597 1152 290.25C1248 322.903 1344 296.297 1392 283.84L1440 270.9V0H1392C1344 0 1248 0 1152 0C1056 0 960 0 864 0C768 0 672 0 576 0C480 0 384 0 288 0C192 0 96 0 48 0H0V116.1Z" fill="black" fill-opacity="0.38"/>
<path d="M0 107.1L48 113.013C96 119.372 192 130.528 288 166.563C384 201.928 480 250.772 576 238.5C672 226.228 768 155.072 864 154.737C960 155.072 1056 237.628 1152 267.75C1248 297.872 1344 273.328 1392 261.837L1440 249.9V0H1392C1344 0 1248 0 1152 0C1056 0 960 0 864 0C768 0 672 0 576 0C480 0 384 0 288 0C192 0 96 0 48 0H0V107.1Z" fill="black" fill-opacity="0.5"/>
<path d="M0 96L48 101.3C96 107 192 117 288 149.3C384 181 480 235 576 224C672 213 768 139 864 138.7C960 139 1056 213 1152 240C1248 267 1344 245 1392 234.7L1440 224V0H1392C1344 0 1248 0 1152 0C1056 0 960 0 864 0C768 0 672 0 576 0C480 0 384 0 288 0C192 0 96 0 48 0H0V96Z" fill="black"/>
</svg>
