<svg width="1440" height="397" viewBox="0 0 1440 397" fill="none" xmlns="http://www.w3.org/2000/svg">
<path d="M0 357.3L48 311.025C96 264.253 192 172.447 288 172.075C384 172.447 480 264.253 576 291.175C672 317.6 768 277.9 864 238.2C960 198.5 1056 158.8 1152 132.375C1248 105.453 1344 93.0469 1392 85.9753L1440 79.4V0H1392C1344 0 1248 0 1152 0C1056 0 960 0 864 0C768 0 672 0 576 0C480 0 384 0 288 0C192 0 96 0 48 0H0V357.3Z" fill="black" fill-opacity="0.25"/>
<path d="M0 288L48 250.7C96 213 192 139 288 138.7C384 139 480 213 576 234.7C672 256 768 224 864 192C960 160 1056 128 1152 106.7C1248 85 1344 75 1392 69.3L1440 64V0H1392C1344 0 1248 0 1152 0C1056 0 960 0 864 0C768 0 672 0 576 0C480 0 384 0 288 0C192 0 96 0 48 0H0V288Z" fill="black"/>
<path d="M0 321.3L48 279.687C96 237.628 192 155.072 288 154.737C384 155.072 480 237.628 576 261.837C672 285.6 768 249.9 864 214.2C960 178.5 1056 142.8 1152 119.037C1248 94.8281 1344 83.6719 1392 77.3128L1440 71.4V0H1392C1344 0 1248 0 1152 0C1056 0 960 0 864 0C768 0 672 0 576 0C480 0 384 0 288 0C192 0 96 0 48 0H0V321.3Z" fill="black" fill-opacity="0.5"/>
</svg>
