<svg width="1440" height="407" viewBox="0 0 1440 407" fill="none" xmlns="http://www.w3.org/2000/svg">
<path d="M0 81.4L48 88.1409C96 95.3906 192 108.109 288 142.45C384 176.791 480 230.209 576 223.85C672 217.491 768 148.809 864 162.8C960 176.791 1056 270.909 1152 271.291C1248 270.909 1344 176.791 1392 128.841L1440 81.4V0H1392C1344 0 1248 0 1152 0C1056 0 960 0 864 0C768 0 672 0 576 0C480 0 384 0 288 0C192 0 96 0 48 0H0V81.4Z" fill="white" fill-opacity="0.36"/>
<path d="M0 73.4L48 79.4784C96 86.0156 192 97.4844 288 128.45C384 159.416 480 207.584 576 201.85C672 196.116 768 134.184 864 146.8C960 159.416 1056 244.284 1152 244.628C1248 244.284 1344 159.416 1392 116.178L1440 73.4V0H1392C1344 0 1248 0 1152 0C1056 0 960 0 864 0C768 0 672 0 576 0C480 0 384 0 288 0C192 0 96 0 48 0H0V73.4Z" fill="white" fill-opacity="0.44"/>
<path d="M0 64L48 69.3C96 75 192 85 288 112C384 139 480 181 576 176C672 171 768 117 864 128C960 139 1056 213 1152 213.3C1248 213 1344 139 1392 101.3L1440 64V0H1392C1344 0 1248 0 1152 0C1056 0 960 0 864 0C768 0 672 0 576 0C480 0 384 0 288 0C192 0 96 0 48 0H0V64Z" fill="white"/>
</svg>
