<svg width="1440" height="234" viewBox="0 0 1440 234" fill="none" xmlns="http://www.w3.org/2000/svg">
<path d="M0 73.4976L48 94.7976C96 116.498 192 158.498 288 142.798C384 126.498 480 52.4976 576 20.1976C672 -11.5024 768 -1.5024 864 20.1976C960 41.4976 1056 73.4976 1152 105.498C1248 137.498 1344 169.498 1392 185.498L1440 201.498V233.498H1392C1344 233.498 1248 233.498 1152 233.498C1056 233.498 960 233.498 864 233.498C768 233.498 672 233.498 576 233.498C480 233.498 384 233.498 288 233.498C192 233.498 96 233.498 48 233.498H0V73.4976Z" fill="#020D2A"/>
</svg>
