<svg width="1440" height="409" viewBox="0 0 1440 409" fill="none" xmlns="http://www.w3.org/2000/svg">
<path d="M0 327.2L48 286.3C96 245.4 192 163.6 288 115.926C384 67.7406 480 54.9594 576 47.6741C672 40.9 768 40.9 864 47.6741C960 54.9594 1056 67.7406 1152 61.35C1248 54.9594 1344 26.8406 1392 13.6759L1440 0H1392C1344 0 1248 0 1152 0C1056 0 960 0 864 0C768 0 672 0 576 0C480 0 384 0 288 0C192 0 96 0 48 0H0V327.2Z" fill="white" fill-opacity="0.13"/>
<path d="M0 288L48 252C96 216 192 144 288 102.037C384 59.625 480 48.375 576 41.9625C672 36 768 36 864 41.9625C960 48.375 1056 59.625 1152 54C1248 48.375 1344 23.625 1392 12.0375L1440 0H1392C1344 0 1248 0 1152 0C1056 0 960 0 864 0C768 0 672 0 576 0C480 0 384 0 288 0C192 0 96 0 48 0H0V288Z" fill="white" fill-opacity="0.32"/>
<path d="M0 256L48 224C96 192 192 128 288 90.7C384 53 480 43 576 37.3C672 32 768 32 864 37.3C960 43 1056 53 1152 48C1248 43 1344 21 1392 10.7L1440 0H1392C1344 0 1248 0 1152 0C1056 0 960 0 864 0C768 0 672 0 576 0C480 0 384 0 288 0C192 0 96 0 48 0H0V256Z" fill="black"/>
</svg>
